#N canvas 0 0 1276 643 12;
#X floatatom 29 57 0 0 0 0 - - -;
#X obj 82 358 *~;
#X obj 205 295 line~;
#X floatatom 237 112 0 0 0 0 - - -;
#X text 68 9 PITCH SHIFTER;
#X obj 205 269 pack 0 200;
#X obj 237 86 r window;
#X obj 19 33 r transpose;
#X obj 19 143 exp;
#X floatatom 19 169 6 0 0 0 - - -;
#X obj 19 259 /;
#X obj 117 191 * 0.001;
#X obj 314 365 line~;
#X obj 314 340 pack 0 200;
#X floatatom 313 289 0 0 0 0 - - -;
#X obj 314 263 r delay;
#X obj 82 384 +~;
#X obj 19 410 cos~;
#X obj 19 437 *~;
#X obj 19 466 +~;
#X obj 106 317 wrap~;
#X obj 251 360 *~;
#X obj 251 393 +~;
#X obj 188 420 cos~;
#X obj 188 447 *~;
#X obj 1107 195 loadbang;
#X obj 61 222 t b f;
#X floatatom 19 285 6 0 0 0 - - -;
#X obj 106 290 +~ 0.5;
#X obj 19 358 -~ 0.5;
#X obj 19 384 *~ 0.5;
#X obj 188 359 -~ 0.5;
#X obj 188 392 *~ 0.5;
#X obj 19 196 - 1;
#X obj 19 117 * 0.05776;
#X obj 19 222 * -1;
#X text 53 63 <-- transposition;
#X text 98 77 (halftones);
#X text 68 157 speed;
#X text 68 170 change;
#X text 281 111 <--window (msec);
#X text 54 252 tape head;
#X obj 19 316 phasor~;
#X obj 314 316 max 1.5;
#X text 317 222 delay;
#X text 314 240 (msec);
#X obj 237 139 max 1;
#X text 55 265 rotation freq;
#X obj 82 410 vd~ G09-del;
#X obj 251 422 vd~ G09-del;
#X obj 410 71 delwrite~ G09-del 5000;
#X obj 135 474 r~ delayFeedback;
#N canvas 741 109 450 300 write_delay 0;
#X obj 73 103 +~;
#X obj 54 208 outlet~;
#X obj 54 26 inlet~;
#X obj 162 24 inlet~;
#X obj 73 147 delwrite~ combfilter 10000;
#X connect 0 0 4 0;
#X connect 2 0 0 0;
#X connect 2 0 1 0;
#X connect 3 0 0 1;
#X restore 17 498 pd write_delay;
#X obj 88 545 s~ delayFeedback;
#N canvas 761 135 468 405 read_delay 0;
#X obj 172 20 *~;
#X obj 238 -22 / 100;
#X obj 172 -148 / 44.1;
#X obj 142 72 +~;
#X obj -43 -173 inlet~;
#X obj 172 -182 inlet;
#X obj 142 151 outlet~;
#X obj 208 87 outlet~;
#X obj 172 -115 delread~ combfilter;
#X obj 238 -59 inlet;
#X connect 0 0 3 1;
#X connect 0 0 7 0;
#X connect 1 0 0 1;
#X connect 2 0 8 0;
#X connect 3 0 6 0;
#X connect 4 0 3 0;
#X connect 5 0 2 0;
#X connect 8 0 0 0;
#X connect 9 0 1 0;
#X restore 17 522 pd read_delay;
#X obj 217 545 cos~;
#X obj 267 517 +~ -0.25;
#X obj 267 544 cos~;
#X obj 154 582 *~;
#X obj 208 582 *~;
#X obj 235 632 -~;
#X obj 267 490 phasor~;
#X obj 18 548 hilbert~;
#X floatatom 268 459 0 0 0 0 - - -;
#X obj 872 534 noise~;
#X obj 1163 743 +~;
#X obj 997 401 bng 15 250 50 0 empty empty empty 17 7 0 10 -262144
-1 -1;
#X msg 1074 418 0;
#X obj 1119 472 f;
#X obj 1168 472 + 1;
#X obj 1149 514 send ms;
#X obj 1119 388 metro 1;
#X obj 1063 386 sel 0;
#X obj 990 153 nbx 5 14 -1e+037 1e+037 0 0 empty m Minutes 0 -8 0 10
-4032 -1 -1 0 256;
#X obj 1066 152 nbx 5 14 -1e+037 1e+037 0 0 empty s Seconds 0 -8 0
10 -4032 -1 -1 0 256;
#X obj 1143 153 nbx 5 14 -1e+037 1e+037 0 0 empty ms Milliseconds 0
-8 0 10 -4032 -1 -1 682746 256;
#X obj 848 602 spigot~;
#X msg 950 435 0;
#X obj 963 400 bng 15 250 50 0 empty empty empty 17 7 0 10 -262144
-1 -1;
#X obj 997 610 tgl 15 0 empty empty empty 17 7 0 10 -262144 -1 -1 1
1;
#X msg 959 463 1;
#X obj 1034 532 -;
#X msg 990 437 0;
#X obj 1115 664 -;
#X obj 1114 694 tgl 15 0 empty empty empty 17 7 0 10 -262144 -1 -1
1 1;
#X msg 1010 461 1;
#X obj 934 527 -;
#X obj 925 610 tgl 15 0 empty empty empty 17 7 0 10 -262144 -1 -1 0
1;
#X obj 996 690 spigot~;
#X msg 1101 633 1;
#X msg 1141 637 0;
#X obj 1119 582 select 0;
#X obj 1132 606 bng 15 250 50 0 empty empty empty 17 7 0 10 -262144
-1 -1;
#X obj 1148 606 bng 15 250 50 0 empty empty empty 17 7 0 10 -262144
-1 -1;
#X obj 862 569 *~ 0.1;
#X obj 1116 553 < 500;
#X obj 965 335 > 60;
#X obj 887 308 env~ 16384 8192;
#X obj 965 368 select 0 1;
#X obj 1031 398 bng 15 250 50 0 empty empty empty 17 7 0 10 -262144
-1 -1;
#X obj 1263 406 hsl 42 23 1 1 1 0 \$0-v \$0-v volume 7 13 1 9 -245500
-13381 -1 -2.14748e+009 0;
#X obj 1307 406 tgl 18 0 THIS_IS_HERE_TO_GET_RID_OF_THE_OUTLET \$0-dsp-toggle
dsp 2 9 1 9 -225271 -195568 -33289 1 1;
#N canvas 366 514 482 356 dsp 0;
#X obj 11 7 inlet;
#X obj 92 226 select 0 1;
#X msg 125 248 6;
#X obj 92 57 route dsp;
#X obj 92 36 receive pd;
#X obj 206 138 loadbang;
#X msg 11 220 dsp \$1;
#X obj 11 245 send pd;
#X msg 206 278 set \$1;
#X obj 206 174 value GLOBAL_PDDP_DSP;
#X msg 109 278 color \$1 20 12;
#X obj 180 309 send \$0-dsp-toggle;
#X obj 92 115 change;
#X msg 92 247 0;
#X connect 0 0 6 0;
#X connect 0 0 12 0;
#X connect 1 0 13 0;
#X connect 1 1 2 0;
#X connect 2 0 10 0;
#X connect 3 0 12 0;
#X connect 4 0 3 0;
#X connect 5 0 9 0;
#X connect 6 0 7 0;
#X connect 8 0 11 0;
#X connect 9 0 8 0;
#X connect 9 0 1 0;
#X connect 10 0 11 0;
#X connect 12 0 8 0;
#X connect 12 0 1 0;
#X connect 12 0 9 0;
#X connect 13 0 10 0;
#X restore 1332 458 pd dsp logic;
#X obj 1336 583 line~;
#X obj 1436 643 *~;
#X obj 1456 673 dac~;
#X obj 1498 642 *~;
#X obj 1251 766 hip~ 3;
#X obj 1304 760 hip~ 3;
#X obj 1262 598 send pd;
#X msg 1262 577 dsp 1;
#X obj 1336 562 pack 0 50;
#X text 1403 561 <-- make a ramp to avoid clicks or zipper noise;
#X msg 1336 527 0;
#X obj 1336 504 moses 0.011;
#X text 1557 384 filter out DC;
#X obj 1179 542 random 500;
#X obj 410 34 adc~;
#X msg 1204 230 \; transpose 0 \; window 100 \; delay 0 \;;
#X obj 1107 267 delay 200;
#X msg 303 459 50;
#X msg 18 86 -3;
#X connect 1 0 16 0;
#X connect 2 0 1 1;
#X connect 2 0 21 1;
#X connect 3 0 46 0;
#X connect 5 0 2 0;
#X connect 6 0 3 0;
#X connect 7 0 121 0;
#X connect 8 0 9 0;
#X connect 9 0 33 0;
#X connect 10 0 27 0;
#X connect 11 0 26 0;
#X connect 12 0 16 1;
#X connect 12 0 22 1;
#X connect 13 0 12 0;
#X connect 14 0 43 0;
#X connect 15 0 14 0;
#X connect 16 0 48 0;
#X connect 17 0 18 0;
#X connect 18 0 19 0;
#X connect 19 0 52 0;
#X connect 20 0 21 0;
#X connect 20 0 31 0;
#X connect 21 0 22 0;
#X connect 22 0 49 0;
#X connect 23 0 24 0;
#X connect 24 0 19 1;
#X connect 25 0 119 0;
#X connect 26 0 10 0;
#X connect 26 1 10 1;
#X connect 27 0 42 0;
#X connect 28 0 20 0;
#X connect 29 0 30 0;
#X connect 30 0 17 0;
#X connect 31 0 32 0;
#X connect 32 0 23 0;
#X connect 33 0 35 0;
#X connect 34 0 8 0;
#X connect 35 0 10 0;
#X connect 42 0 1 0;
#X connect 42 0 29 0;
#X connect 42 0 28 0;
#X connect 43 0 13 0;
#X connect 46 0 11 0;
#X connect 46 0 5 0;
#X connect 48 0 18 1;
#X connect 49 0 24 1;
#X connect 51 0 52 1;
#X connect 52 0 54 0;
#X connect 54 0 62 0;
#X connect 54 1 53 0;
#X connect 55 0 58 1;
#X connect 56 0 57 0;
#X connect 57 0 59 1;
#X connect 58 0 60 0;
#X connect 59 0 60 1;
#X connect 60 0 65 0;
#X connect 60 0 97 0;
#X connect 61 0 56 0;
#X connect 61 0 55 0;
#X connect 62 0 58 0;
#X connect 62 1 59 0;
#X connect 64 0 94 0;
#X connect 65 0 108 0;
#X connect 65 0 107 0;
#X connect 66 0 82 0;
#X connect 66 0 85 0;
#X connect 67 0 68 1;
#X connect 68 0 69 0;
#X connect 68 0 70 0;
#X connect 68 0 95 0;
#X connect 69 0 68 1;
#X connect 71 0 68 0;
#X connect 72 0 67 0;
#X connect 76 0 88 0;
#X connect 77 0 86 0;
#X connect 78 0 80 0;
#X connect 78 0 77 0;
#X connect 80 0 81 0;
#X connect 81 0 79 0;
#X connect 81 0 72 0;
#X connect 82 0 81 0;
#X connect 83 0 84 0;
#X connect 84 0 88 1;
#X connect 85 0 86 0;
#X connect 86 0 87 0;
#X connect 87 0 76 1;
#X connect 88 0 65 1;
#X connect 89 0 83 0;
#X connect 90 0 83 0;
#X connect 91 0 92 0;
#X connect 91 1 93 0;
#X connect 92 0 89 0;
#X connect 93 0 90 0;
#X connect 94 0 76 0;
#X connect 95 0 91 0;
#X connect 96 0 98 0;
#X connect 97 0 96 0;
#X connect 98 0 78 0;
#X connect 98 0 116 0;
#X connect 98 1 66 0;
#X connect 98 2 99 0;
#X connect 100 0 110 0;
#X connect 100 0 114 0;
#X connect 101 0 102 0;
#X connect 103 0 106 0;
#X connect 103 0 104 0;
#X connect 104 0 105 0;
#X connect 106 0 105 1;
#X connect 107 0 104 1;
#X connect 108 0 106 1;
#X connect 110 0 109 0;
#X connect 111 0 103 0;
#X connect 113 0 111 0;
#X connect 114 0 113 0;
#X connect 114 1 111 0;
#X connect 116 0 95 1;
#X connect 117 0 50 0;
#X connect 119 0 71 0;
#X connect 119 0 118 0;
#X connect 119 0 100 0;
#X connect 119 0 120 0;
#X connect 120 0 61 0;
#X connect 121 0 34 0;
